<svg xmlns="http://www.w3.org/2000/svg" width="34" height="34" viewBox="0 0 34 34"><defs><style>.a{fill:#fff;stroke:#fff;stroke-width:2px;}</style></defs><g transform="translate(1 1)"><path class="a" d="M20.273,29.273a9.356,9.356,0,0,0,9-9c0-4.71-4.29-8-9-8a7.655,7.655,0,0,0-8,8C12.273,24.982,15.563,29.273,20.273,29.273Zm0-16a6.853,6.853,0,0,1,7,7,6.853,6.853,0,0,1-7,7,6.853,6.853,0,0,1-7-7A6.853,6.853,0,0,1,20.273,13.273Z" transform="translate(-5.273 -5.273)"/><rect class="a" width="1" height="5" transform="translate(15)"/><rect class="a" width="1" height="5" transform="translate(15 27)"/><rect class="a" width="5" height="1" transform="translate(27 15)"/><rect class="a" width="5" height="1" transform="translate(0 15)"/><rect class="a" width="4.599" height="1.314" transform="translate(22.703 6.908) rotate(-45)"/><rect class="a" width="4.599" height="1.314" transform="translate(3.653 25.955) rotate(-45)"/><rect class="a" width="1.314" height="4.599" transform="translate(22.702 23.631) rotate(-45)"/><rect class="a" width="1.314" height="4.599" transform="translate(3.654 4.583) rotate(-45)"/></g></svg>